
<global>
amp_veltrack=0
ampeg_attack=0.001
ampeg_release=1.5
</global>

<group>
group_label=RR1
seq_length=8
seq_position=1

<region>
hivel=103
key=G3
lovel=78
offset=824
sample=Tenors_Solo_Drum_1_Dreads_Hit_F_D4_RR1.opus
</region>

<region>
hivel=127
key=G3
lovel=104
offset=5053
sample=Tenors_Solo_Drum_1_Dreads_Hit_FF_D4_RR1.opus
</region>

<region>
hivel=77
key=G3
lovel=52
offset=3485
sample=Tenors_Solo_Drum_1_Dreads_Hit_MF_D4_RR1.opus
</region>

<region>
hivel=51
key=G3
lovel=26
offset=4087
sample=Tenors_Solo_Drum_1_Dreads_Hit_MP_D4_RR1.opus
</region>

<region>
hivel=25
key=G3
lovel=0
offset=4046
sample=Tenors_Solo_Drum_1_Dreads_Hit_P_D4_RR1.opus
</region>

<region>
hivel=103
key=F#3
lovel=78
offset=712
sample=Tenors_Solo_Drum_2_Dreads_Hit_F_D4_RR1.opus
</region>

<region>
hivel=127
key=F#3
lovel=104
offset=762
sample=Tenors_Solo_Drum_2_Dreads_Hit_FF_D4_RR1.opus
</region>

<region>
hivel=77
key=F#3
lovel=52
offset=4129
sample=Tenors_Solo_Drum_2_Dreads_Hit_MF_D4_RR1.opus
</region>

<region>
hivel=51
key=F#3
lovel=26
offset=3452
sample=Tenors_Solo_Drum_2_Dreads_Hit_MP_D4_RR1.opus
</region>

<region>
hivel=25
key=F#3
lovel=0
offset=3247
sample=Tenors_Solo_Drum_2_Dreads_Hit_P_D4_RR1.opus
</region>

<region>
hivel=103
key=F3
lovel=78
offset=710
sample=Tenors_Solo_Drum_3_Dreads_Hit_F_D4_RR1.opus
</region>

<region>
hivel=127
key=F3
lovel=104
offset=592
sample=Tenors_Solo_Drum_3_Dreads_Hit_FF_D4_RR1.opus
</region>

<region>
hivel=77
key=F3
lovel=52
offset=1535
sample=Tenors_Solo_Drum_3_Dreads_Hit_MF_D4_RR1.opus
</region>

<region>
hivel=51
key=F3
lovel=26
offset=4098
sample=Tenors_Solo_Drum_3_Dreads_Hit_MP_D4_RR1.opus
</region>

<region>
hivel=25
key=F3
lovel=0
offset=3564
sample=Tenors_Solo_Drum_3_Dreads_Hit_P_D4_RR1.opus
</region>

<region>
hivel=103
key=E3
lovel=78
offset=593
sample=Tenors_Solo_Drum_4_Dreads_Hit_F_D4_RR1.opus
</region>

<region>
hivel=127
key=E3
lovel=104
offset=618
sample=Tenors_Solo_Drum_4_Dreads_Hit_FF_D4_RR1.opus
</region>

<region>
hivel=77
key=E3
lovel=52
offset=4800
sample=Tenors_Solo_Drum_4_Dreads_Hit_MF_D4_RR1.opus
</region>

<region>
hivel=51
key=E3
lovel=26
offset=5130
sample=Tenors_Solo_Drum_4_Dreads_Hit_MP_D4_RR1.opus
</region>

<region>
hivel=25
key=E3
lovel=0
offset=4775
sample=Tenors_Solo_Drum_4_Dreads_Hit_P_D4_RR1.opus
</region>

<region>
hivel=103
key=D#3
lovel=78
offset=705
sample=Tenors_Solo_Drum_5_Dreads_Hit_F_D4_RR1.opus
</region>

<region>
hivel=127
key=D#3
lovel=104
offset=590
sample=Tenors_Solo_Drum_5_Dreads_Hit_FF_D4_RR1.opus
</region>

<region>
hivel=77
key=D#3
lovel=52
offset=4799
sample=Tenors_Solo_Drum_5_Dreads_Hit_MF_D4_RR1.opus
</region>

<region>
hivel=51
key=D#3
lovel=26
offset=4950
sample=Tenors_Solo_Drum_5_Dreads_Hit_MP_D4_RR1.opus
</region>

<region>
hivel=25
key=D#3
lovel=0
offset=5025
sample=Tenors_Solo_Drum_5_Dreads_Hit_P_D4_RR1.opus
</region>

<region>
hivel=103
key=D3
lovel=78
offset=724
sample=Tenors_Solo_Drum_6_Dreads_Hit_F_D4_RR1.opus
</region>

<region>
hivel=127
key=D3
lovel=104
offset=727
sample=Tenors_Solo_Drum_6_Dreads_Hit_FF_D4_RR1.opus
</region>

<region>
hivel=77
key=D3
lovel=52
offset=705
sample=Tenors_Solo_Drum_6_Dreads_Hit_MF_D4_RR1.opus
</region>

<region>
hivel=51
key=D3
lovel=26
offset=4012
sample=Tenors_Solo_Drum_6_Dreads_Hit_MP_D4_RR1.opus
</region>

<region>
hivel=25
key=D3
lovel=0
offset=5121
sample=Tenors_Solo_Drum_6_Dreads_Hit_P_D4_RR1.opus
</region>
</group>

<group>
group_label=RR2
seq_length=8
seq_position=2

<region>
hivel=103
key=G3
lovel=78
offset=5519
sample=Tenors_Solo_Drum_1_Dreads_Hit_F_D4_RR2.opus
</region>

<region>
hivel=127
key=G3
lovel=104
offset=697
sample=Tenors_Solo_Drum_1_Dreads_Hit_FF_D4_RR2.opus
</region>

<region>
hivel=77
key=G3
lovel=52
offset=718
sample=Tenors_Solo_Drum_1_Dreads_Hit_MF_D4_RR2.opus
</region>

<region>
hivel=51
key=G3
lovel=26
offset=4430
sample=Tenors_Solo_Drum_1_Dreads_Hit_MP_D4_RR2.opus
</region>

<region>
hivel=25
key=G3
lovel=0
offset=5404
sample=Tenors_Solo_Drum_1_Dreads_Hit_P_D4_RR2.opus
</region>

<region>
hivel=103
key=F#3
lovel=78
offset=711
sample=Tenors_Solo_Drum_2_Dreads_Hit_F_D4_RR2.opus
</region>

<region>
hivel=127
key=F#3
lovel=104
offset=706
sample=Tenors_Solo_Drum_2_Dreads_Hit_FF_D4_RR2.opus
</region>

<region>
hivel=77
key=F#3
lovel=52
offset=3737
sample=Tenors_Solo_Drum_2_Dreads_Hit_MF_D4_RR2.opus
</region>

<region>
hivel=51
key=F#3
lovel=26
offset=2505
sample=Tenors_Solo_Drum_2_Dreads_Hit_MP_D4_RR2.opus
</region>

<region>
hivel=25
key=F#3
lovel=0
offset=3654
sample=Tenors_Solo_Drum_2_Dreads_Hit_P_D4_RR2.opus
</region>

<region>
hivel=103
key=F3
lovel=78
offset=711
sample=Tenors_Solo_Drum_3_Dreads_Hit_F_D4_RR2.opus
</region>

<region>
hivel=127
key=F3
lovel=104
offset=623
sample=Tenors_Solo_Drum_3_Dreads_Hit_FF_D4_RR2.opus
</region>

<region>
hivel=77
key=F3
lovel=52
offset=609
sample=Tenors_Solo_Drum_3_Dreads_Hit_MF_D4_RR2.opus
</region>

<region>
hivel=51
key=F3
lovel=26
offset=5220
sample=Tenors_Solo_Drum_3_Dreads_Hit_MP_D4_RR2.opus
</region>

<region>
hivel=25
key=F3
lovel=0
offset=4221
sample=Tenors_Solo_Drum_3_Dreads_Hit_P_D4_RR2.opus
</region>

<region>
hivel=103
key=E3
lovel=78
offset=722
sample=Tenors_Solo_Drum_4_Dreads_Hit_F_D4_RR2.opus
</region>

<region>
hivel=127
key=E3
lovel=104
offset=696
sample=Tenors_Solo_Drum_4_Dreads_Hit_FF_D4_RR2.opus
</region>

<region>
hivel=77
key=E3
lovel=52
offset=5637
sample=Tenors_Solo_Drum_4_Dreads_Hit_MF_D4_RR2.opus
</region>

<region>
hivel=51
key=E3
lovel=26
offset=4790
sample=Tenors_Solo_Drum_4_Dreads_Hit_MP_D4_RR2.opus
</region>

<region>
hivel=25
key=E3
lovel=0
offset=7510
sample=Tenors_Solo_Drum_4_Dreads_Hit_P_D4_RR2.opus
</region>

<region>
hivel=103
key=D#3
lovel=78
offset=607
sample=Tenors_Solo_Drum_5_Dreads_Hit_F_D4_RR2.opus
</region>

<region>
hivel=127
key=D#3
lovel=104
offset=700
sample=Tenors_Solo_Drum_5_Dreads_Hit_FF_D4_RR2.opus
</region>

<region>
hivel=77
key=D#3
lovel=52
offset=5160
sample=Tenors_Solo_Drum_5_Dreads_Hit_MF_D4_RR2.opus
</region>

<region>
hivel=51
key=D#3
lovel=26
offset=5902
sample=Tenors_Solo_Drum_5_Dreads_Hit_MP_D4_RR2.opus
</region>

<region>
hivel=25
key=D#3
lovel=0
offset=5548
sample=Tenors_Solo_Drum_5_Dreads_Hit_P_D4_RR2.opus
</region>

<region>
hivel=103
key=D3
lovel=78
offset=699
sample=Tenors_Solo_Drum_6_Dreads_Hit_F_D4_RR2.opus
</region>

<region>
hivel=127
key=D3
lovel=104
offset=3365
sample=Tenors_Solo_Drum_6_Dreads_Hit_FF_D4_RR2.opus
</region>

<region>
hivel=77
key=D3
lovel=52
offset=741
sample=Tenors_Solo_Drum_6_Dreads_Hit_MF_D4_RR2.opus
</region>

<region>
hivel=51
key=D3
lovel=26
offset=5137
sample=Tenors_Solo_Drum_6_Dreads_Hit_MP_D4_RR2.opus
</region>

<region>
hivel=25
key=D3
lovel=0
offset=7211
sample=Tenors_Solo_Drum_6_Dreads_Hit_P_D4_RR2.opus
</region>
</group>

<group>
group_label=RR3
seq_length=8
seq_position=3

<region>
hivel=103
key=G3
lovel=78
offset=1355
sample=Tenors_Solo_Drum_1_Dreads_Hit_F_D4_RR3.opus
</region>

<region>
hivel=127
key=G3
lovel=104
offset=713
sample=Tenors_Solo_Drum_1_Dreads_Hit_FF_D4_RR3.opus
</region>

<region>
hivel=77
key=G3
lovel=52
offset=4269
sample=Tenors_Solo_Drum_1_Dreads_Hit_MF_D4_RR3.opus
</region>

<region>
hivel=51
key=G3
lovel=26
offset=3380
sample=Tenors_Solo_Drum_1_Dreads_Hit_MP_D4_RR3.opus
</region>

<region>
hivel=25
key=G3
lovel=0
offset=4873
sample=Tenors_Solo_Drum_1_Dreads_Hit_P_D4_RR3.opus
</region>

<region>
hivel=103
key=F#3
lovel=78
offset=626
sample=Tenors_Solo_Drum_2_Dreads_Hit_F_D4_RR3.opus
</region>

<region>
hivel=127
key=F#3
lovel=104
offset=595
sample=Tenors_Solo_Drum_2_Dreads_Hit_FF_D4_RR3.opus
</region>

<region>
hivel=77
key=F#3
lovel=52
offset=4035
sample=Tenors_Solo_Drum_2_Dreads_Hit_MF_D4_RR3.opus
</region>

<region>
hivel=51
key=F#3
lovel=26
offset=2472
sample=Tenors_Solo_Drum_2_Dreads_Hit_MP_D4_RR3.opus
</region>

<region>
hivel=25
key=F#3
lovel=0
offset=3473
sample=Tenors_Solo_Drum_2_Dreads_Hit_P_D4_RR3.opus
</region>

<region>
hivel=103
key=F3
lovel=78
offset=667
sample=Tenors_Solo_Drum_3_Dreads_Hit_F_D4_RR3.opus
</region>

<region>
hivel=127
key=F3
lovel=104
offset=700
sample=Tenors_Solo_Drum_3_Dreads_Hit_FF_D4_RR3.opus
</region>

<region>
hivel=77
key=F3
lovel=52
offset=715
sample=Tenors_Solo_Drum_3_Dreads_Hit_MF_D4_RR3.opus
</region>

<region>
hivel=51
key=F3
lovel=26
offset=5605
sample=Tenors_Solo_Drum_3_Dreads_Hit_MP_D4_RR3.opus
</region>

<region>
hivel=25
key=F3
lovel=0
offset=4011
sample=Tenors_Solo_Drum_3_Dreads_Hit_P_D4_RR3.opus
</region>

<region>
hivel=103
key=E3
lovel=78
offset=698
sample=Tenors_Solo_Drum_4_Dreads_Hit_F_D4_RR3.opus
</region>

<region>
hivel=127
key=E3
lovel=104
offset=705
sample=Tenors_Solo_Drum_4_Dreads_Hit_FF_D4_RR3.opus
</region>

<region>
hivel=77
key=E3
lovel=52
offset=6218
sample=Tenors_Solo_Drum_4_Dreads_Hit_MF_D4_RR3.opus
</region>

<region>
hivel=51
key=E3
lovel=26
offset=4170
sample=Tenors_Solo_Drum_4_Dreads_Hit_MP_D4_RR3.opus
</region>

<region>
hivel=25
key=E3
lovel=0
offset=7317
sample=Tenors_Solo_Drum_4_Dreads_Hit_P_D4_RR3.opus
</region>

<region>
hivel=103
key=D#3
lovel=78
offset=708
sample=Tenors_Solo_Drum_5_Dreads_Hit_F_D4_RR3.opus
</region>

<region>
hivel=127
key=D#3
lovel=104
offset=702
sample=Tenors_Solo_Drum_5_Dreads_Hit_FF_D4_RR3.opus
</region>

<region>
hivel=77
key=D#3
lovel=52
offset=2500
sample=Tenors_Solo_Drum_5_Dreads_Hit_MF_D4_RR3.opus
</region>

<region>
hivel=51
key=D#3
lovel=26
offset=6359
sample=Tenors_Solo_Drum_5_Dreads_Hit_MP_D4_RR3.opus
</region>

<region>
hivel=25
key=D#3
lovel=0
offset=5017
sample=Tenors_Solo_Drum_5_Dreads_Hit_P_D4_RR3.opus
</region>

<region>
hivel=103
key=D3
lovel=78
offset=729
sample=Tenors_Solo_Drum_6_Dreads_Hit_F_D4_RR3.opus
</region>

<region>
hivel=127
key=D3
lovel=104
offset=698
sample=Tenors_Solo_Drum_6_Dreads_Hit_FF_D4_RR3.opus
</region>

<region>
hivel=77
key=D3
lovel=52
offset=6630
sample=Tenors_Solo_Drum_6_Dreads_Hit_MF_D4_RR3.opus
</region>

<region>
hivel=51
key=D3
lovel=26
offset=5993
sample=Tenors_Solo_Drum_6_Dreads_Hit_MP_D4_RR3.opus
</region>

<region>
hivel=25
key=D3
lovel=0
offset=7151
sample=Tenors_Solo_Drum_6_Dreads_Hit_P_D4_RR3.opus
</region>
</group>

<group>
group_label=RR4
seq_length=8
seq_position=4

<region>
hivel=103
key=G3
lovel=78
offset=617
sample=Tenors_Solo_Drum_1_Dreads_Hit_F_D4_RR4.opus
</region>

<region>
hivel=127
key=G3
lovel=104
offset=704
sample=Tenors_Solo_Drum_1_Dreads_Hit_FF_D4_RR4.opus
</region>

<region>
hivel=77
key=G3
lovel=52
offset=3827
sample=Tenors_Solo_Drum_1_Dreads_Hit_MF_D4_RR4.opus
</region>

<region>
hivel=51
key=G3
lovel=26
offset=2984
sample=Tenors_Solo_Drum_1_Dreads_Hit_MP_D4_RR4.opus
</region>

<region>
hivel=25
key=G3
lovel=0
offset=4967
sample=Tenors_Solo_Drum_1_Dreads_Hit_P_D4_RR4.opus
</region>

<region>
hivel=103
key=F#3
lovel=78
offset=713
sample=Tenors_Solo_Drum_2_Dreads_Hit_F_D4_RR4.opus
</region>

<region>
hivel=127
key=F#3
lovel=104
offset=699
sample=Tenors_Solo_Drum_2_Dreads_Hit_FF_D4_RR4.opus
</region>

<region>
hivel=77
key=F#3
lovel=52
offset=4109
sample=Tenors_Solo_Drum_2_Dreads_Hit_MF_D4_RR4.opus
</region>

<region>
hivel=51
key=F#3
lovel=26
offset=2481
sample=Tenors_Solo_Drum_2_Dreads_Hit_MP_D4_RR4.opus
</region>

<region>
hivel=25
key=F#3
lovel=0
offset=3529
sample=Tenors_Solo_Drum_2_Dreads_Hit_P_D4_RR4.opus
</region>

<region>
hivel=103
key=F3
lovel=78
offset=3169
sample=Tenors_Solo_Drum_3_Dreads_Hit_F_D4_RR4.opus
</region>

<region>
hivel=127
key=F3
lovel=104
offset=682
sample=Tenors_Solo_Drum_3_Dreads_Hit_FF_D4_RR4.opus
</region>

<region>
hivel=77
key=F3
lovel=52
offset=5756
sample=Tenors_Solo_Drum_3_Dreads_Hit_MF_D4_RR4.opus
</region>

<region>
hivel=51
key=F3
lovel=26
offset=5400
sample=Tenors_Solo_Drum_3_Dreads_Hit_MP_D4_RR4.opus
</region>

<region>
hivel=25
key=F3
lovel=0
offset=4291
sample=Tenors_Solo_Drum_3_Dreads_Hit_P_D4_RR4.opus
</region>

<region>
hivel=103
key=E3
lovel=78
offset=698
sample=Tenors_Solo_Drum_4_Dreads_Hit_F_D4_RR4.opus
</region>

<region>
hivel=127
key=E3
lovel=104
offset=615
sample=Tenors_Solo_Drum_4_Dreads_Hit_FF_D4_RR4.opus
</region>

<region>
hivel=77
key=E3
lovel=52
offset=5762
sample=Tenors_Solo_Drum_4_Dreads_Hit_MF_D4_RR4.opus
</region>

<region>
hivel=51
key=E3
lovel=26
offset=4707
sample=Tenors_Solo_Drum_4_Dreads_Hit_MP_D4_RR4.opus
</region>

<region>
hivel=25
key=E3
lovel=0
offset=8015
sample=Tenors_Solo_Drum_4_Dreads_Hit_P_D4_RR4.opus
</region>

<region>
hivel=103
key=D#3
lovel=78
offset=703
sample=Tenors_Solo_Drum_5_Dreads_Hit_F_D4_RR4.opus
</region>

<region>
hivel=127
key=D#3
lovel=104
offset=734
sample=Tenors_Solo_Drum_5_Dreads_Hit_FF_D4_RR4.opus
</region>

<region>
hivel=77
key=D#3
lovel=52
offset=5335
sample=Tenors_Solo_Drum_5_Dreads_Hit_MF_D4_RR4.opus
</region>

<region>
hivel=51
key=D#3
lovel=26
offset=5952
sample=Tenors_Solo_Drum_5_Dreads_Hit_MP_D4_RR4.opus
</region>

<region>
hivel=25
key=D#3
lovel=0
offset=5926
sample=Tenors_Solo_Drum_5_Dreads_Hit_P_D4_RR4.opus
</region>

<region>
hivel=103
key=D3
lovel=78
offset=742
sample=Tenors_Solo_Drum_6_Dreads_Hit_F_D4_RR4.opus
</region>

<region>
hivel=127
key=D3
lovel=104
offset=626
sample=Tenors_Solo_Drum_6_Dreads_Hit_FF_D4_RR4.opus
</region>

<region>
hivel=77
key=D3
lovel=52
offset=4450
sample=Tenors_Solo_Drum_6_Dreads_Hit_MF_D4_RR4.opus
</region>

<region>
hivel=51
key=D3
lovel=26
offset=6128
sample=Tenors_Solo_Drum_6_Dreads_Hit_MP_D4_RR4.opus
</region>

<region>
hivel=25
key=D3
lovel=0
offset=7700
sample=Tenors_Solo_Drum_6_Dreads_Hit_P_D4_RR4.opus
</region>
</group>

<group>
group_label=RR5
seq_length=8
seq_position=5

<region>
hivel=103
key=G3
lovel=78
offset=6621
sample=Tenors_Solo_Drum_1_Dreads_Hit_F_D4_RR5.opus
</region>

<region>
hivel=127
key=G3
lovel=104
offset=709
sample=Tenors_Solo_Drum_1_Dreads_Hit_FF_D4_RR5.opus
</region>

<region>
hivel=77
key=G3
lovel=52
offset=4277
sample=Tenors_Solo_Drum_1_Dreads_Hit_MF_D4_RR5.opus
</region>

<region>
hivel=51
key=G3
lovel=26
offset=5642
sample=Tenors_Solo_Drum_1_Dreads_Hit_MP_D4_RR5.opus
</region>

<region>
hivel=25
key=G3
lovel=0
offset=5184
sample=Tenors_Solo_Drum_1_Dreads_Hit_P_D4_RR5.opus
</region>

<region>
hivel=103
key=F#3
lovel=78
offset=707
sample=Tenors_Solo_Drum_2_Dreads_Hit_F_D4_RR5.opus
</region>

<region>
hivel=127
key=F#3
lovel=104
offset=605
sample=Tenors_Solo_Drum_2_Dreads_Hit_FF_D4_RR5.opus
</region>

<region>
hivel=77
key=F#3
lovel=52
offset=4066
sample=Tenors_Solo_Drum_2_Dreads_Hit_MF_D4_RR5.opus
</region>

<region>
hivel=51
key=F#3
lovel=26
offset=3901
sample=Tenors_Solo_Drum_2_Dreads_Hit_MP_D4_RR5.opus
</region>

<region>
hivel=25
key=F#3
lovel=0
offset=4001
sample=Tenors_Solo_Drum_2_Dreads_Hit_P_D4_RR5.opus
</region>

<region>
hivel=103
key=F3
lovel=78
offset=650
sample=Tenors_Solo_Drum_3_Dreads_Hit_F_D4_RR5.opus
</region>

<region>
hivel=127
key=F3
lovel=104
offset=579
sample=Tenors_Solo_Drum_3_Dreads_Hit_FF_D4_RR5.opus
</region>

<region>
hivel=77
key=F3
lovel=52
offset=5238
sample=Tenors_Solo_Drum_3_Dreads_Hit_MF_D4_RR5.opus
</region>

<region>
hivel=51
key=F3
lovel=26
offset=5381
sample=Tenors_Solo_Drum_3_Dreads_Hit_MP_D4_RR5.opus
</region>

<region>
hivel=25
key=F3
lovel=0
offset=3087
sample=Tenors_Solo_Drum_3_Dreads_Hit_P_D4_RR5.opus
</region>

<region>
hivel=103
key=E3
lovel=78
offset=703
sample=Tenors_Solo_Drum_4_Dreads_Hit_F_D4_RR5.opus
</region>

<region>
hivel=127
key=E3
lovel=104
offset=700
sample=Tenors_Solo_Drum_4_Dreads_Hit_FF_D4_RR5.opus
</region>

<region>
hivel=77
key=E3
lovel=52
offset=6071
sample=Tenors_Solo_Drum_4_Dreads_Hit_MF_D4_RR5.opus
</region>

<region>
hivel=51
key=E3
lovel=26
offset=6141
sample=Tenors_Solo_Drum_4_Dreads_Hit_MP_D4_RR5.opus
</region>

<region>
hivel=25
key=E3
lovel=0
offset=6021
sample=Tenors_Solo_Drum_4_Dreads_Hit_P_D4_RR5.opus
</region>

<region>
hivel=103
key=D#3
lovel=78
offset=5790
sample=Tenors_Solo_Drum_5_Dreads_Hit_F_D4_RR5.opus
</region>

<region>
hivel=127
key=D#3
lovel=104
offset=716
sample=Tenors_Solo_Drum_5_Dreads_Hit_FF_D4_RR5.opus
</region>

<region>
hivel=77
key=D#3
lovel=52
offset=5683
sample=Tenors_Solo_Drum_5_Dreads_Hit_MF_D4_RR5.opus
</region>

<region>
hivel=51
key=D#3
lovel=26
offset=7034
sample=Tenors_Solo_Drum_5_Dreads_Hit_MP_D4_RR5.opus
</region>

<region>
hivel=25
key=D#3
lovel=0
offset=5563
sample=Tenors_Solo_Drum_5_Dreads_Hit_P_D4_RR5.opus
</region>

<region>
hivel=103
key=D3
lovel=78
offset=662
sample=Tenors_Solo_Drum_6_Dreads_Hit_F_D4_RR5.opus
</region>

<region>
hivel=127
key=D3
lovel=104
offset=699
sample=Tenors_Solo_Drum_6_Dreads_Hit_FF_D4_RR5.opus
</region>

<region>
hivel=77
key=D3
lovel=52
offset=4840
sample=Tenors_Solo_Drum_6_Dreads_Hit_MF_D4_RR5.opus
</region>

<region>
hivel=51
key=D3
lovel=26
offset=6502
sample=Tenors_Solo_Drum_6_Dreads_Hit_MP_D4_RR5.opus
</region>

<region>
hivel=25
key=D3
lovel=0
offset=7520
sample=Tenors_Solo_Drum_6_Dreads_Hit_P_D4_RR5.opus
</region>
</group>

<group>
group_label=RR6
seq_length=8
seq_position=6

<region>
hivel=103
key=G3
lovel=78
offset=701
sample=Tenors_Solo_Drum_1_Dreads_Hit_F_D4_RR6.opus
</region>

<region>
hivel=127
key=G3
lovel=104
offset=815
sample=Tenors_Solo_Drum_1_Dreads_Hit_FF_D4_RR6.opus
</region>

<region>
hivel=77
key=G3
lovel=52
offset=4230
sample=Tenors_Solo_Drum_1_Dreads_Hit_MF_D4_RR6.opus
</region>

<region>
hivel=51
key=G3
lovel=26
offset=4957
sample=Tenors_Solo_Drum_1_Dreads_Hit_MP_D4_RR6.opus
</region>

<region>
hivel=25
key=G3
lovel=0
offset=3484
sample=Tenors_Solo_Drum_1_Dreads_Hit_P_D4_RR6.opus
</region>

<region>
hivel=103
key=F#3
lovel=78
offset=599
sample=Tenors_Solo_Drum_2_Dreads_Hit_F_D4_RR6.opus
</region>

<region>
hivel=127
key=F#3
lovel=104
offset=691
sample=Tenors_Solo_Drum_2_Dreads_Hit_FF_D4_RR6.opus
</region>

<region>
hivel=77
key=F#3
lovel=52
offset=4266
sample=Tenors_Solo_Drum_2_Dreads_Hit_MF_D4_RR6.opus
</region>

<region>
hivel=51
key=F#3
lovel=26
offset=2517
sample=Tenors_Solo_Drum_2_Dreads_Hit_MP_D4_RR6.opus
</region>

<region>
hivel=25
key=F#3
lovel=0
offset=1516
sample=Tenors_Solo_Drum_2_Dreads_Hit_P_D4_RR6.opus
</region>

<region>
hivel=103
key=F3
lovel=78
offset=592
sample=Tenors_Solo_Drum_3_Dreads_Hit_F_D4_RR6.opus
</region>

<region>
hivel=127
key=F3
lovel=104
offset=704
sample=Tenors_Solo_Drum_3_Dreads_Hit_FF_D4_RR6.opus
</region>

<region>
hivel=77
key=F3
lovel=52
offset=2142
sample=Tenors_Solo_Drum_3_Dreads_Hit_MF_D4_RR6.opus
</region>

<region>
hivel=51
key=F3
lovel=26
offset=6063
sample=Tenors_Solo_Drum_3_Dreads_Hit_MP_D4_RR6.opus
</region>

<region>
hivel=25
key=F3
lovel=0
offset=4692
sample=Tenors_Solo_Drum_3_Dreads_Hit_P_D4_RR6.opus
</region>

<region>
hivel=103
key=E3
lovel=78
offset=705
sample=Tenors_Solo_Drum_4_Dreads_Hit_F_D4_RR6.opus
</region>

<region>
hivel=127
key=E3
lovel=104
offset=696
sample=Tenors_Solo_Drum_4_Dreads_Hit_FF_D4_RR6.opus
</region>

<region>
hivel=77
key=E3
lovel=52
offset=5272
sample=Tenors_Solo_Drum_4_Dreads_Hit_MF_D4_RR6.opus
</region>

<region>
hivel=51
key=E3
lovel=26
offset=4355
sample=Tenors_Solo_Drum_4_Dreads_Hit_MP_D4_RR6.opus
</region>

<region>
hivel=25
key=E3
lovel=0
offset=8700
sample=Tenors_Solo_Drum_4_Dreads_Hit_P_D4_RR6.opus
</region>

<region>
hivel=103
key=D#3
lovel=78
offset=4678
sample=Tenors_Solo_Drum_5_Dreads_Hit_F_D4_RR6.opus
</region>

<region>
hivel=127
key=D#3
lovel=104
offset=594
sample=Tenors_Solo_Drum_5_Dreads_Hit_FF_D4_RR6.opus
</region>

<region>
hivel=77
key=D#3
lovel=52
offset=4676
sample=Tenors_Solo_Drum_5_Dreads_Hit_MF_D4_RR6.opus
</region>

<region>
hivel=51
key=D#3
lovel=26
offset=5444
sample=Tenors_Solo_Drum_5_Dreads_Hit_MP_D4_RR6.opus
</region>

<region>
hivel=25
key=D#3
lovel=0
offset=6899
sample=Tenors_Solo_Drum_5_Dreads_Hit_P_D4_RR6.opus
</region>

<region>
hivel=103
key=D3
lovel=78
offset=621
sample=Tenors_Solo_Drum_6_Dreads_Hit_F_D4_RR6.opus
</region>

<region>
hivel=127
key=D3
lovel=104
offset=590
sample=Tenors_Solo_Drum_6_Dreads_Hit_FF_D4_RR6.opus
</region>

<region>
hivel=77
key=D3
lovel=52
offset=4425
sample=Tenors_Solo_Drum_6_Dreads_Hit_MF_D4_RR6.opus
</region>

<region>
hivel=51
key=D3
lovel=26
offset=6523
sample=Tenors_Solo_Drum_6_Dreads_Hit_MP_D4_RR6.opus
</region>

<region>
hivel=25
key=D3
lovel=0
offset=5980
sample=Tenors_Solo_Drum_6_Dreads_Hit_P_D4_RR6.opus
</region>
</group>

<group>
group_label=RR7
seq_length=8
seq_position=7

<region>
hivel=103
key=G3
lovel=78
offset=719
sample=Tenors_Solo_Drum_1_Dreads_Hit_F_D4_RR7.opus
</region>

<region>
hivel=127
key=G3
lovel=104
offset=721
sample=Tenors_Solo_Drum_1_Dreads_Hit_FF_D4_RR7.opus
</region>

<region>
hivel=77
key=G3
lovel=52
offset=4257
sample=Tenors_Solo_Drum_1_Dreads_Hit_MF_D4_RR7.opus
</region>

<region>
hivel=51
key=G3
lovel=26
offset=5223
sample=Tenors_Solo_Drum_1_Dreads_Hit_MP_D4_RR7.opus
</region>

<region>
hivel=25
key=G3
lovel=0
offset=6138
sample=Tenors_Solo_Drum_1_Dreads_Hit_P_D4_RR7.opus
</region>

<region>
hivel=103
key=F#3
lovel=78
offset=716
sample=Tenors_Solo_Drum_2_Dreads_Hit_F_D4_RR7.opus
</region>

<region>
hivel=127
key=F#3
lovel=104
offset=696
sample=Tenors_Solo_Drum_2_Dreads_Hit_FF_D4_RR7.opus
</region>

<region>
hivel=77
key=F#3
lovel=52
offset=4146
sample=Tenors_Solo_Drum_2_Dreads_Hit_MF_D4_RR7.opus
</region>

<region>
hivel=51
key=F#3
lovel=26
offset=1554
sample=Tenors_Solo_Drum_2_Dreads_Hit_MP_D4_RR7.opus
</region>

<region>
hivel=25
key=F#3
lovel=0
offset=3197
sample=Tenors_Solo_Drum_2_Dreads_Hit_P_D4_RR7.opus
</region>

<region>
hivel=103
key=F3
lovel=78
offset=692
sample=Tenors_Solo_Drum_3_Dreads_Hit_F_D4_RR7.opus
</region>

<region>
hivel=127
key=F3
lovel=104
offset=695
sample=Tenors_Solo_Drum_3_Dreads_Hit_FF_D4_RR7.opus
</region>

<region>
hivel=77
key=F3
lovel=52
offset=3739
sample=Tenors_Solo_Drum_3_Dreads_Hit_MF_D4_RR7.opus
</region>

<region>
hivel=51
key=F3
lovel=26
offset=4570
sample=Tenors_Solo_Drum_3_Dreads_Hit_MP_D4_RR7.opus
</region>

<region>
hivel=25
key=F3
lovel=0
offset=4926
sample=Tenors_Solo_Drum_3_Dreads_Hit_P_D4_RR7.opus
</region>

<region>
hivel=103
key=E3
lovel=78
offset=706
sample=Tenors_Solo_Drum_4_Dreads_Hit_F_D4_RR7.opus
</region>

<region>
hivel=127
key=E3
lovel=104
offset=693
sample=Tenors_Solo_Drum_4_Dreads_Hit_FF_D4_RR7.opus
</region>

<region>
hivel=77
key=E3
lovel=52
offset=6295
sample=Tenors_Solo_Drum_4_Dreads_Hit_MF_D4_RR7.opus
</region>

<region>
hivel=51
key=E3
lovel=26
offset=5658
sample=Tenors_Solo_Drum_4_Dreads_Hit_MP_D4_RR7.opus
</region>

<region>
hivel=25
key=E3
lovel=0
offset=7085
sample=Tenors_Solo_Drum_4_Dreads_Hit_P_D4_RR7.opus
</region>

<region>
hivel=103
key=D#3
lovel=78
offset=1792
sample=Tenors_Solo_Drum_5_Dreads_Hit_F_D4_RR7.opus
</region>

<region>
hivel=127
key=D#3
lovel=104
offset=657
sample=Tenors_Solo_Drum_5_Dreads_Hit_FF_D4_RR7.opus
</region>

<region>
hivel=77
key=D#3
lovel=52
offset=4542
sample=Tenors_Solo_Drum_5_Dreads_Hit_MF_D4_RR7.opus
</region>

<region>
hivel=51
key=D#3
lovel=26
offset=7732
sample=Tenors_Solo_Drum_5_Dreads_Hit_MP_D4_RR7.opus
</region>

<region>
hivel=25
key=D#3
lovel=0
offset=7494
sample=Tenors_Solo_Drum_5_Dreads_Hit_P_D4_RR7.opus
</region>

<region>
hivel=103
key=D3
lovel=78
offset=4884
sample=Tenors_Solo_Drum_6_Dreads_Hit_F_D4_RR7.opus
</region>

<region>
hivel=127
key=D3
lovel=104
offset=4703
sample=Tenors_Solo_Drum_6_Dreads_Hit_FF_D4_RR7.opus
</region>

<region>
hivel=77
key=D3
lovel=52
offset=3942
sample=Tenors_Solo_Drum_6_Dreads_Hit_MF_D4_RR7.opus
</region>

<region>
hivel=51
key=D3
lovel=26
offset=6054
sample=Tenors_Solo_Drum_6_Dreads_Hit_MP_D4_RR7.opus
</region>

<region>
hivel=25
key=D3
lovel=0
offset=7437
sample=Tenors_Solo_Drum_6_Dreads_Hit_P_D4_RR7.opus
</region>
</group>

<group>
group_label=RR8
seq_length=8
seq_position=8

<region>
hivel=103
key=G3
lovel=78
offset=620
sample=Tenors_Solo_Drum_1_Dreads_Hit_F_D4_RR8.opus
</region>

<region>
hivel=127
key=G3
lovel=104
offset=584
sample=Tenors_Solo_Drum_1_Dreads_Hit_FF_D4_RR8.opus
</region>

<region>
hivel=77
key=G3
lovel=52
offset=3467
sample=Tenors_Solo_Drum_1_Dreads_Hit_MF_D4_RR8.opus
</region>

<region>
hivel=51
key=G3
lovel=26
offset=3867
sample=Tenors_Solo_Drum_1_Dreads_Hit_MP_D4_RR8.opus
</region>

<region>
hivel=25
key=G3
lovel=0
offset=3739
sample=Tenors_Solo_Drum_1_Dreads_Hit_P_D4_RR8.opus
</region>

<region>
hivel=103
key=F#3
lovel=78
offset=712
sample=Tenors_Solo_Drum_2_Dreads_Hit_F_D4_RR8.opus
</region>

<region>
hivel=127
key=F#3
lovel=104
offset=621
sample=Tenors_Solo_Drum_2_Dreads_Hit_FF_D4_RR8.opus
</region>

<region>
hivel=77
key=F#3
lovel=52
offset=2343
sample=Tenors_Solo_Drum_2_Dreads_Hit_MF_D4_RR8.opus
</region>

<region>
hivel=51
key=F#3
lovel=26
offset=1342
sample=Tenors_Solo_Drum_2_Dreads_Hit_MP_D4_RR8.opus
</region>

<region>
hivel=25
key=F#3
lovel=0
offset=3893
sample=Tenors_Solo_Drum_2_Dreads_Hit_P_D4_RR8.opus
</region>

<region>
hivel=103
key=F3
lovel=78
offset=640
sample=Tenors_Solo_Drum_3_Dreads_Hit_F_D4_RR8.opus
</region>

<region>
hivel=127
key=F3
lovel=104
offset=644
sample=Tenors_Solo_Drum_3_Dreads_Hit_FF_D4_RR8.opus
</region>

<region>
hivel=77
key=F3
lovel=52
offset=4698
sample=Tenors_Solo_Drum_3_Dreads_Hit_MF_D4_RR8.opus
</region>

<region>
hivel=51
key=F3
lovel=26
offset=5223
sample=Tenors_Solo_Drum_3_Dreads_Hit_MP_D4_RR8.opus
</region>

<region>
hivel=25
key=F3
lovel=0
offset=5527
sample=Tenors_Solo_Drum_3_Dreads_Hit_P_D4_RR8.opus
</region>

<region>
hivel=103
key=E3
lovel=78
offset=676
sample=Tenors_Solo_Drum_4_Dreads_Hit_F_D4_RR8.opus
</region>

<region>
hivel=127
key=E3
lovel=104
offset=626
sample=Tenors_Solo_Drum_4_Dreads_Hit_FF_D4_RR8.opus
</region>

<region>
hivel=77
key=E3
lovel=52
offset=4668
sample=Tenors_Solo_Drum_4_Dreads_Hit_MF_D4_RR8.opus
</region>

<region>
hivel=51
key=E3
lovel=26
offset=5314
sample=Tenors_Solo_Drum_4_Dreads_Hit_MP_D4_RR8.opus
</region>

<region>
hivel=25
key=E3
lovel=0
offset=8083
sample=Tenors_Solo_Drum_4_Dreads_Hit_P_D4_RR8.opus
</region>

<region>
hivel=103
key=D#3
lovel=78
offset=719
sample=Tenors_Solo_Drum_5_Dreads_Hit_F_D4_RR8.opus
</region>

<region>
hivel=127
key=D#3
lovel=104
offset=696
sample=Tenors_Solo_Drum_5_Dreads_Hit_FF_D4_RR8.opus
</region>

<region>
hivel=77
key=D#3
lovel=52
offset=4086
sample=Tenors_Solo_Drum_5_Dreads_Hit_MF_D4_RR8.opus
</region>

<region>
hivel=51
key=D#3
lovel=26
offset=7237
sample=Tenors_Solo_Drum_5_Dreads_Hit_MP_D4_RR8.opus
</region>

<region>
hivel=25
key=D#3
lovel=0
offset=6757
sample=Tenors_Solo_Drum_5_Dreads_Hit_P_D4_RR8.opus
</region>

<region>
hivel=103
key=D3
lovel=78
offset=602
sample=Tenors_Solo_Drum_6_Dreads_Hit_F_D4_RR8.opus
</region>

<region>
hivel=127
key=D3
lovel=104
offset=705
sample=Tenors_Solo_Drum_6_Dreads_Hit_FF_D4_RR8.opus
</region>

<region>
hivel=77
key=D3
lovel=52
offset=5019
sample=Tenors_Solo_Drum_6_Dreads_Hit_MF_D4_RR8.opus
</region>

<region>
hivel=51
key=D3
lovel=26
offset=7081
sample=Tenors_Solo_Drum_6_Dreads_Hit_MP_D4_RR8.opus
</region>

<region>
hivel=25
key=D3
lovel=0
offset=8044
sample=Tenors_Solo_Drum_6_Dreads_Hit_P_D4_RR8.opus
</region>
</group>

<group>
color=green
group_label=Alt_Hits_RR1
seq_length=4
seq_position=1

<region>
hivel=103
key=G4
lovel=78
offset=759
sample=Tenors_Solo_Drum_1_Dreads_Muted_Hit_F_D4_RR1.opus
</region>

<region>
hivel=127
key=G4
lovel=104
offset=4221
sample=Tenors_Solo_Drum_1_Dreads_Muted_Hit_FF_D4_RR1.opus
</region>

<region>
hivel=77
key=G4
lovel=52
offset=4941
sample=Tenors_Solo_Drum_1_Dreads_Muted_Hit_MF_D4_RR1.opus
</region>

<region>
hivel=51
key=G4
lovel=26
offset=4434
sample=Tenors_Solo_Drum_1_Dreads_Muted_Hit_MP_D4_RR1.opus
</region>

<region>
hivel=25
key=G4
lovel=0
offset=4469
sample=Tenors_Solo_Drum_1_Dreads_Muted_Hit_P_D4_RR1.opus
</region>

<region>
hivel=103
key=F#4
lovel=78
offset=713
sample=Tenors_Solo_Drum_2_Dreads_Muted_Hit_F_D4_RR1.opus
</region>

<region>
hivel=127
key=F#4
lovel=104
offset=666
sample=Tenors_Solo_Drum_2_Dreads_Muted_Hit_FF_D4_RR1.opus
</region>

<region>
hivel=77
key=F#4
lovel=52
offset=3262
sample=Tenors_Solo_Drum_2_Dreads_Muted_Hit_MF_D4_RR1.opus
</region>

<region>
hivel=51
key=F#4
lovel=26
offset=2669
sample=Tenors_Solo_Drum_2_Dreads_Muted_Hit_MP_D4_RR1.opus
</region>

<region>
hivel=25
key=F#4
lovel=0
offset=4325
sample=Tenors_Solo_Drum_2_Dreads_Muted_Hit_P_D4_RR1.opus
</region>

<region>
hivel=103
key=F4
lovel=78
offset=598
sample=Tenors_Solo_Drum_3_Dreads_Muted_Hit_F_D4_RR1.opus
</region>

<region>
hivel=127
key=F4
lovel=104
offset=708
sample=Tenors_Solo_Drum_3_Dreads_Muted_Hit_FF_D4_RR1.opus
</region>

<region>
hivel=77
key=F4
lovel=52
offset=740
sample=Tenors_Solo_Drum_3_Dreads_Muted_Hit_MF_D4_RR1.opus
</region>

<region>
hivel=51
key=F4
lovel=26
offset=5019
sample=Tenors_Solo_Drum_3_Dreads_Muted_Hit_MP_D4_RR1.opus
</region>

<region>
hivel=25
key=F4
lovel=0
offset=4046
sample=Tenors_Solo_Drum_3_Dreads_Muted_Hit_P_D4_RR1.opus
</region>

<region>
hivel=103
key=E4
lovel=78
offset=697
sample=Tenors_Solo_Drum_4_Dreads_Muted_Hit_F_D4_RR1.opus
</region>

<region>
hivel=127
key=E4
lovel=104
offset=726
sample=Tenors_Solo_Drum_4_Dreads_Muted_Hit_FF_D4_RR1.opus
</region>

<region>
hivel=77
key=E4
lovel=52
offset=6474
sample=Tenors_Solo_Drum_4_Dreads_Muted_Hit_MF_D4_RR1.opus
</region>

<region>
hivel=51
key=E4
lovel=26
offset=6904
sample=Tenors_Solo_Drum_4_Dreads_Muted_Hit_MP_D4_RR1.opus
</region>

<region>
hivel=25
key=E4
lovel=0
offset=6086
sample=Tenors_Solo_Drum_4_Dreads_Muted_Hit_P_D4_RR1.opus
</region>

<region>
hivel=103
key=D#4
lovel=78
offset=6285
sample=Tenors_Solo_Drum_5_Dreads_Muted_Hit_F_D4_RR1.opus
</region>

<region>
hivel=127
key=D#4
lovel=104
offset=649
sample=Tenors_Solo_Drum_5_Dreads_Muted_Hit_FF_D4_RR1.opus
</region>

<region>
hivel=77
key=D#4
lovel=52
offset=5540
sample=Tenors_Solo_Drum_5_Dreads_Muted_Hit_MF_D4_RR1.opus
</region>

<region>
hivel=51
key=D#4
lovel=26
offset=8434
sample=Tenors_Solo_Drum_5_Dreads_Muted_Hit_MP_D4_RR1.opus
</region>

<region>
hivel=25
key=D#4
lovel=0
offset=5554
sample=Tenors_Solo_Drum_5_Dreads_Muted_Hit_P_D4_RR1.opus
</region>

<region>
hivel=103
key=D4
lovel=78
offset=5147
sample=Tenors_Solo_Drum_6_Dreads_Muted_Hit_F_D4_RR1.opus
</region>

<region>
hivel=127
key=D4
lovel=104
offset=3459
sample=Tenors_Solo_Drum_6_Dreads_Muted_Hit_FF_D4_RR1.opus
</region>

<region>
hivel=77
key=D4
lovel=52
offset=4689
sample=Tenors_Solo_Drum_6_Dreads_Muted_Hit_MF_D4_RR1.opus
</region>

<region>
hivel=51
key=D4
lovel=26
offset=4035
sample=Tenors_Solo_Drum_6_Dreads_Muted_Hit_MP_D4_RR1.opus
</region>

<region>
hivel=25
key=D4
lovel=0
offset=6753
sample=Tenors_Solo_Drum_6_Dreads_Muted_Hit_P_D4_RR1.opus
</region>
</group>

<group>
color=green
group_label=Alt_Hits_RR2
seq_length=4
seq_position=2

<region>
hivel=103
key=G4
lovel=78
offset=6137
sample=Tenors_Solo_Drum_1_Dreads_Muted_Hit_F_D4_RR2.opus
</region>

<region>
hivel=127
key=G4
lovel=104
offset=712
sample=Tenors_Solo_Drum_1_Dreads_Muted_Hit_FF_D4_RR2.opus
</region>

<region>
hivel=77
key=G4
lovel=52
offset=3849
sample=Tenors_Solo_Drum_1_Dreads_Muted_Hit_MF_D4_RR2.opus
</region>

<region>
hivel=51
key=G4
lovel=26
offset=5848
sample=Tenors_Solo_Drum_1_Dreads_Muted_Hit_MP_D4_RR2.opus
</region>

<region>
hivel=25
key=G4
lovel=0
offset=6053
sample=Tenors_Solo_Drum_1_Dreads_Muted_Hit_P_D4_RR2.opus
</region>

<region>
hivel=103
key=F#4
lovel=78
offset=709
sample=Tenors_Solo_Drum_2_Dreads_Muted_Hit_F_D4_RR2.opus
</region>

<region>
hivel=127
key=F#4
lovel=104
offset=710
sample=Tenors_Solo_Drum_2_Dreads_Muted_Hit_FF_D4_RR2.opus
</region>

<region>
hivel=77
key=F#4
lovel=52
offset=4419
sample=Tenors_Solo_Drum_2_Dreads_Muted_Hit_MF_D4_RR2.opus
</region>

<region>
hivel=51
key=F#4
lovel=26
offset=4101
sample=Tenors_Solo_Drum_2_Dreads_Muted_Hit_MP_D4_RR2.opus
</region>

<region>
hivel=25
key=F#4
lovel=0
offset=4139
sample=Tenors_Solo_Drum_2_Dreads_Muted_Hit_P_D4_RR2.opus
</region>

<region>
hivel=103
key=F4
lovel=78
offset=706
sample=Tenors_Solo_Drum_3_Dreads_Muted_Hit_F_D4_RR2.opus
</region>

<region>
hivel=127
key=F4
lovel=104
offset=5302
sample=Tenors_Solo_Drum_3_Dreads_Muted_Hit_FF_D4_RR2.opus
</region>

<region>
hivel=77
key=F4
lovel=52
offset=2761
sample=Tenors_Solo_Drum_3_Dreads_Muted_Hit_MF_D4_RR2.opus
</region>

<region>
hivel=51
key=F4
lovel=26
offset=5895
sample=Tenors_Solo_Drum_3_Dreads_Muted_Hit_MP_D4_RR2.opus
</region>

<region>
hivel=25
key=F4
lovel=0
offset=4923
sample=Tenors_Solo_Drum_3_Dreads_Muted_Hit_P_D4_RR2.opus
</region>

<region>
hivel=103
key=E4
lovel=78
offset=702
sample=Tenors_Solo_Drum_4_Dreads_Muted_Hit_F_D4_RR2.opus
</region>

<region>
hivel=127
key=E4
lovel=104
offset=717
sample=Tenors_Solo_Drum_4_Dreads_Muted_Hit_FF_D4_RR2.opus
</region>

<region>
hivel=77
key=E4
lovel=52
offset=6072
sample=Tenors_Solo_Drum_4_Dreads_Muted_Hit_MF_D4_RR2.opus
</region>

<region>
hivel=51
key=E4
lovel=26
offset=5788
sample=Tenors_Solo_Drum_4_Dreads_Muted_Hit_MP_D4_RR2.opus
</region>

<region>
hivel=25
key=E4
lovel=0
offset=6962
sample=Tenors_Solo_Drum_4_Dreads_Muted_Hit_P_D4_RR2.opus
</region>

<region>
hivel=103
key=D#4
lovel=78
offset=5903
sample=Tenors_Solo_Drum_5_Dreads_Muted_Hit_F_D4_RR2.opus
</region>

<region>
hivel=127
key=D#4
lovel=104
offset=605
sample=Tenors_Solo_Drum_5_Dreads_Muted_Hit_FF_D4_RR2.opus
</region>

<region>
hivel=77
key=D#4
lovel=52
offset=5390
sample=Tenors_Solo_Drum_5_Dreads_Muted_Hit_MF_D4_RR2.opus
</region>

<region>
hivel=51
key=D#4
lovel=26
offset=8283
sample=Tenors_Solo_Drum_5_Dreads_Muted_Hit_MP_D4_RR2.opus
</region>

<region>
hivel=25
key=D#4
lovel=0
offset=5955
sample=Tenors_Solo_Drum_5_Dreads_Muted_Hit_P_D4_RR2.opus
</region>

<region>
hivel=103
key=D4
lovel=78
offset=6279
sample=Tenors_Solo_Drum_6_Dreads_Muted_Hit_F_D4_RR2.opus
</region>

<region>
hivel=127
key=D4
lovel=104
offset=4424
sample=Tenors_Solo_Drum_6_Dreads_Muted_Hit_FF_D4_RR2.opus
</region>

<region>
hivel=77
key=D4
lovel=52
offset=5372
sample=Tenors_Solo_Drum_6_Dreads_Muted_Hit_MF_D4_RR2.opus
</region>

<region>
hivel=51
key=D4
lovel=26
offset=5515
sample=Tenors_Solo_Drum_6_Dreads_Muted_Hit_MP_D4_RR2.opus
</region>

<region>
hivel=25
key=D4
lovel=0
offset=7076
sample=Tenors_Solo_Drum_6_Dreads_Muted_Hit_P_D4_RR2.opus
</region>
</group>

<group>
color=green
group_label=Alt_Hits_RR3
seq_length=4
seq_position=3

<region>
hivel=103
key=G4
lovel=78
offset=5811
sample=Tenors_Solo_Drum_1_Dreads_Muted_Hit_F_D4_RR3.opus
</region>

<region>
hivel=127
key=G4
lovel=104
offset=2517
sample=Tenors_Solo_Drum_1_Dreads_Muted_Hit_FF_D4_RR3.opus
</region>

<region>
hivel=77
key=G4
lovel=52
offset=3460
sample=Tenors_Solo_Drum_1_Dreads_Muted_Hit_MF_D4_RR3.opus
</region>

<region>
hivel=51
key=G4
lovel=26
offset=3974
sample=Tenors_Solo_Drum_1_Dreads_Muted_Hit_MP_D4_RR3.opus
</region>

<region>
hivel=25
key=G4
lovel=0
offset=5409
sample=Tenors_Solo_Drum_1_Dreads_Muted_Hit_P_D4_RR3.opus
</region>

<region>
hivel=103
key=F#4
lovel=78
offset=3587
sample=Tenors_Solo_Drum_2_Dreads_Muted_Hit_F_D4_RR3.opus
</region>

<region>
hivel=127
key=F#4
lovel=104
offset=819
sample=Tenors_Solo_Drum_2_Dreads_Muted_Hit_FF_D4_RR3.opus
</region>

<region>
hivel=77
key=F#4
lovel=52
offset=4802
sample=Tenors_Solo_Drum_2_Dreads_Muted_Hit_MF_D4_RR3.opus
</region>

<region>
hivel=51
key=F#4
lovel=26
offset=3376
sample=Tenors_Solo_Drum_2_Dreads_Muted_Hit_MP_D4_RR3.opus
</region>

<region>
hivel=25
key=F#4
lovel=0
offset=2456
sample=Tenors_Solo_Drum_2_Dreads_Muted_Hit_P_D4_RR3.opus
</region>

<region>
hivel=103
key=F4
lovel=78
offset=705
sample=Tenors_Solo_Drum_3_Dreads_Muted_Hit_F_D4_RR3.opus
</region>

<region>
hivel=127
key=F4
lovel=104
offset=712
sample=Tenors_Solo_Drum_3_Dreads_Muted_Hit_FF_D4_RR3.opus
</region>

<region>
hivel=77
key=F4
lovel=52
offset=5388
sample=Tenors_Solo_Drum_3_Dreads_Muted_Hit_MF_D4_RR3.opus
</region>

<region>
hivel=51
key=F4
lovel=26
offset=5934
sample=Tenors_Solo_Drum_3_Dreads_Muted_Hit_MP_D4_RR3.opus
</region>

<region>
hivel=25
key=F4
lovel=0
offset=4927
sample=Tenors_Solo_Drum_3_Dreads_Muted_Hit_P_D4_RR3.opus
</region>

<region>
hivel=103
key=E4
lovel=78
offset=578
sample=Tenors_Solo_Drum_4_Dreads_Muted_Hit_F_D4_RR3.opus
</region>

<region>
hivel=127
key=E4
lovel=104
offset=709
sample=Tenors_Solo_Drum_4_Dreads_Muted_Hit_FF_D4_RR3.opus
</region>

<region>
hivel=77
key=E4
lovel=52
offset=6145
sample=Tenors_Solo_Drum_4_Dreads_Muted_Hit_MF_D4_RR3.opus
</region>

<region>
hivel=51
key=E4
lovel=26
offset=5385
sample=Tenors_Solo_Drum_4_Dreads_Muted_Hit_MP_D4_RR3.opus
</region>

<region>
hivel=25
key=E4
lovel=0
offset=8118
sample=Tenors_Solo_Drum_4_Dreads_Muted_Hit_P_D4_RR3.opus
</region>

<region>
hivel=103
key=D#4
lovel=78
offset=959
sample=Tenors_Solo_Drum_5_Dreads_Muted_Hit_F_D4_RR3.opus
</region>

<region>
hivel=127
key=D#4
lovel=104
offset=600
sample=Tenors_Solo_Drum_5_Dreads_Muted_Hit_FF_D4_RR3.opus
</region>

<region>
hivel=77
key=D#4
lovel=52
offset=4560
sample=Tenors_Solo_Drum_5_Dreads_Muted_Hit_MF_D4_RR3.opus
</region>

<region>
hivel=51
key=D#4
lovel=26
offset=6759
sample=Tenors_Solo_Drum_5_Dreads_Muted_Hit_MP_D4_RR3.opus
</region>

<region>
hivel=25
key=D#4
lovel=0
offset=5714
sample=Tenors_Solo_Drum_5_Dreads_Muted_Hit_P_D4_RR3.opus
</region>

<region>
hivel=103
key=D4
lovel=78
offset=4494
sample=Tenors_Solo_Drum_6_Dreads_Muted_Hit_F_D4_RR3.opus
</region>

<region>
hivel=127
key=D4
lovel=104
offset=724
sample=Tenors_Solo_Drum_6_Dreads_Muted_Hit_FF_D4_RR3.opus
</region>

<region>
hivel=77
key=D4
lovel=52
offset=5356
sample=Tenors_Solo_Drum_6_Dreads_Muted_Hit_MF_D4_RR3.opus
</region>

<region>
hivel=51
key=D4
lovel=26
offset=5241
sample=Tenors_Solo_Drum_6_Dreads_Muted_Hit_MP_D4_RR3.opus
</region>

<region>
hivel=25
key=D4
lovel=0
offset=7250
sample=Tenors_Solo_Drum_6_Dreads_Muted_Hit_P_D4_RR3.opus
</region>
</group>

<group>
color=green
group_label=Alt_Hits_RR4
seq_length=4
seq_position=4

<region>
hivel=103
key=G4
lovel=78
offset=6115
sample=Tenors_Solo_Drum_1_Dreads_Muted_Hit_F_D4_RR4.opus
</region>

<region>
hivel=127
key=G4
lovel=104
offset=4404
sample=Tenors_Solo_Drum_1_Dreads_Muted_Hit_FF_D4_RR4.opus
</region>

<region>
hivel=77
key=G4
lovel=52
offset=2623
sample=Tenors_Solo_Drum_1_Dreads_Muted_Hit_MF_D4_RR4.opus
</region>

<region>
hivel=51
key=G4
lovel=26
offset=3904
sample=Tenors_Solo_Drum_1_Dreads_Muted_Hit_MP_D4_RR4.opus
</region>

<region>
hivel=25
key=G4
lovel=0
offset=6405
sample=Tenors_Solo_Drum_1_Dreads_Muted_Hit_P_D4_RR4.opus
</region>

<region>
hivel=103
key=F#4
lovel=78
offset=706
sample=Tenors_Solo_Drum_2_Dreads_Muted_Hit_F_D4_RR4.opus
</region>

<region>
hivel=127
key=F#4
lovel=104
offset=711
sample=Tenors_Solo_Drum_2_Dreads_Muted_Hit_FF_D4_RR4.opus
</region>

<region>
hivel=77
key=F#4
lovel=52
offset=3431
sample=Tenors_Solo_Drum_2_Dreads_Muted_Hit_MF_D4_RR4.opus
</region>

<region>
hivel=51
key=F#4
lovel=26
offset=3485
sample=Tenors_Solo_Drum_2_Dreads_Muted_Hit_MP_D4_RR4.opus
</region>

<region>
hivel=25
key=F#4
lovel=0
offset=4322
sample=Tenors_Solo_Drum_2_Dreads_Muted_Hit_P_D4_RR4.opus
</region>

<region>
hivel=103
key=F4
lovel=78
offset=705
sample=Tenors_Solo_Drum_3_Dreads_Muted_Hit_F_D4_RR4.opus
</region>

<region>
hivel=127
key=F4
lovel=104
offset=4920
sample=Tenors_Solo_Drum_3_Dreads_Muted_Hit_FF_D4_RR4.opus
</region>

<region>
hivel=77
key=F4
lovel=52
offset=5404
sample=Tenors_Solo_Drum_3_Dreads_Muted_Hit_MF_D4_RR4.opus
</region>

<region>
hivel=51
key=F4
lovel=26
offset=5852
sample=Tenors_Solo_Drum_3_Dreads_Muted_Hit_MP_D4_RR4.opus
</region>

<region>
hivel=25
key=F4
lovel=0
offset=4069
sample=Tenors_Solo_Drum_3_Dreads_Muted_Hit_P_D4_RR4.opus
</region>

<region>
hivel=103
key=E4
lovel=78
offset=705
sample=Tenors_Solo_Drum_4_Dreads_Muted_Hit_F_D4_RR4.opus
</region>

<region>
hivel=127
key=E4
lovel=104
offset=603
sample=Tenors_Solo_Drum_4_Dreads_Muted_Hit_FF_D4_RR4.opus
</region>

<region>
hivel=77
key=E4
lovel=52
offset=5512
sample=Tenors_Solo_Drum_4_Dreads_Muted_Hit_MF_D4_RR4.opus
</region>

<region>
hivel=51
key=E4
lovel=26
offset=4756
sample=Tenors_Solo_Drum_4_Dreads_Muted_Hit_MP_D4_RR4.opus
</region>

<region>
hivel=25
key=E4
lovel=0
offset=7968
sample=Tenors_Solo_Drum_4_Dreads_Muted_Hit_P_D4_RR4.opus
</region>

<region>
hivel=103
key=D#4
lovel=78
offset=725
sample=Tenors_Solo_Drum_5_Dreads_Muted_Hit_F_D4_RR4.opus
</region>

<region>
hivel=127
key=D#4
lovel=104
offset=744
sample=Tenors_Solo_Drum_5_Dreads_Muted_Hit_FF_D4_RR4.opus
</region>

<region>
hivel=77
key=D#4
lovel=52
offset=5502
sample=Tenors_Solo_Drum_5_Dreads_Muted_Hit_MF_D4_RR4.opus
</region>

<region>
hivel=51
key=D#4
lovel=26
offset=6749
sample=Tenors_Solo_Drum_5_Dreads_Muted_Hit_MP_D4_RR4.opus
</region>

<region>
hivel=25
key=D#4
lovel=0
offset=4750
sample=Tenors_Solo_Drum_5_Dreads_Muted_Hit_P_D4_RR4.opus
</region>

<region>
hivel=103
key=D4
lovel=78
offset=4141
sample=Tenors_Solo_Drum_6_Dreads_Muted_Hit_F_D4_RR4.opus
</region>

<region>
hivel=127
key=D4
lovel=104
offset=703
sample=Tenors_Solo_Drum_6_Dreads_Muted_Hit_FF_D4_RR4.opus
</region>

<region>
hivel=77
key=D4
lovel=52
offset=3701
sample=Tenors_Solo_Drum_6_Dreads_Muted_Hit_MF_D4_RR4.opus
</region>

<region>
hivel=51
key=D4
lovel=26
offset=5390
sample=Tenors_Solo_Drum_6_Dreads_Muted_Hit_MP_D4_RR4.opus
</region>

<region>
hivel=25
key=D4
lovel=0
offset=7680
sample=Tenors_Solo_Drum_6_Dreads_Muted_Hit_P_D4_RR4.opus
</region>
</group>